# xmcd CD database file
#
# Track frame offsets:
#	150
#	15699
#	30891
#	45012
#	60051
#	75884
#	94160
#	112081
#	129393
#	146997
#	156338
#
# Disc length: 2325 seconds
#
# Revision: 0
# Processed by: cddbd v1.5.2PL0 Copyright (c) Steve Scherf et al.
# Submitted via: CDex 1.79
#
DISCID=7809130b
DTITLE=Justin McBride - Everybody Loves A Cowboy
DYEAR=2012
DGENRE=Country
TTITLE0=Everybody Loves A Cowboy
TTITLE1=A Fire That Just Won't Burn
TTITLE2=It Makes Me Lean
TTITLE3=Highways And Honky Tonks
TTITLE4=Lovin' Me Look Easy
TTITLE5=Bandy The Rodeo Clown
TTITLE6=Never Gets Lonely Here
TTITLE7=That's Why I'm Here
TTITLE8=Too Late To Save The World
TTITLE9=Hair Of The Dog
TTITLE10=It's Sure Been A Good Ride
EXTD=YEAR: 2012
EXTT0=
EXTT1=
EXTT2=
EXTT3=
EXTT4=
EXTT5=
EXTT6=
EXTT7=
EXTT8=
EXTT9=
EXTT10=
PLAYORDER=
